<svg xmlns="http://www.w3.org/2000/svg" xmlns:xlink="http://www.w3.org/1999/xlink" viewBox="0 0 500 500"><defs><style>.a{fill:#8086ed;}.b{fill:url(#a);}.c{fill:#fff;}.d{opacity:0.62;fill:url(#b);}</style><linearGradient id="a" x1="250" y1="383.34" x2="250" y2="244.33" gradientUnits="userSpaceOnUse"><stop offset="0" stop-color="#8086ed" stop-opacity="0"/><stop offset="0.17" stop-color="#5c5fb4" stop-opacity="0.31"/><stop offset="0.46" stop-color="#30306e" stop-opacity="0.69"/><stop offset="0.73" stop-color="#161444" stop-opacity="0.92"/><stop offset="1" stop-color="#0d0a36"/></linearGradient><linearGradient id="b" x1="309.98" y1="392.47" x2="309.98" y2="107.53" gradientUnits="userSpaceOnUse"><stop offset="0.46" stop-color="#fff"/><stop offset="0.54" stop-color="#f8f8fe"/><stop offset="0.65" stop-color="#e4e6fb"/><stop offset="0.78" stop-color="#c5c7f7"/><stop offset="0.93" stop-color="#989df0"/><stop offset="1" stop-color="#8086ed"/></linearGradient></defs><rect class="a" width="500" height="500"/><path class="b" d="M370,284.41h0v0C316.31,302.29,272.8,341.62,250.19,392l-.13.34a.12.12,0,0,0,0,.1.14.14,0,0,0,0-.1h0C227.36,341.8,183.79,302.32,130,284.45v0h0l52.09-76.72v0L250,107.53l67.89,100.13v0Z"/><path class="c" d="M370,284.42,295.76,268,250.05,392.37a.05.05,0,1,1-.08,0L204.24,268,130,284.42l52.08-76.73v0L250,107.53,317.9,207.67v0Z"/><path class="d" d="M370,284.41,295.75,268,250,392.37a.14.14,0,0,0,0,.1V107.53l67.89,100.13v0Z"/></svg>